<svg id="Layer_1" data-name="Layer 1" xmlns="http://www.w3.org/2000/svg" viewBox="0 0 300 300"><defs><style>.cls-1{fill:#f15928;}</style></defs><path d="M22.28,154A9.89,9.89,0,0,1,21,159a9.55,9.55,0,0,1-4.08,3.77,15.35,15.35,0,0,1-7.15,1.45,33,33,0,0,1-3.84-.2,16.49,16.49,0,0,1-3.07-.64,22.48,22.48,0,0,1-3-1.18v-7.7a27,27,0,0,0,5.25,2,19.26,19.26,0,0,0,4.8.69,6,6,0,0,0,2.11-.31,2.56,2.56,0,0,0,1.22-.84,2.06,2.06,0,0,0,.39-1.24,1.92,1.92,0,0,0-.58-1.41,7.36,7.36,0,0,0-1.85-1.21c-.85-.42-2-.95-3.35-1.58a31.77,31.77,0,0,1-3.21-1.71,11.07,11.07,0,0,1-2.45-2A7.76,7.76,0,0,1,.63,144.2a10.28,10.28,0,0,1-.55-3.56,8.59,8.59,0,0,1,1.52-5.18,9.22,9.22,0,0,1,4.25-3.14,17.38,17.38,0,0,1,6.29-1,20.83,20.83,0,0,1,5.64.7,30.92,30.92,0,0,1,4.5,1.6l-2.65,6.67a27.07,27.07,0,0,0-4-1.5,13.87,13.87,0,0,0-3.7-.56,5.18,5.18,0,0,0-1.83.28,2.27,2.27,0,0,0-1.05.73,1.71,1.71,0,0,0-.34,1.05,1.86,1.86,0,0,0,.58,1.34,7.86,7.86,0,0,0,1.95,1.28c.91.46,2.16,1,3.73,1.78a21.73,21.73,0,0,1,4,2.27,8.25,8.25,0,0,1,2.5,2.91A9.12,9.12,0,0,1,22.28,154Z"/><path d="M66.08,138.36a5.74,5.74,0,0,0-2.74.64,5.91,5.91,0,0,0-2.05,1.88,9.06,9.06,0,0,0-1.31,3,16.25,16.25,0,0,0-.45,4,14.68,14.68,0,0,0,.77,5.08,6.24,6.24,0,0,0,2.33,3.11,6.93,6.93,0,0,0,3.93,1,14.52,14.52,0,0,0,4.13-.59,41.64,41.64,0,0,0,4-1.43v7.31a19,19,0,0,1-4.34,1.36,25.43,25.43,0,0,1-4.72.42,15.89,15.89,0,0,1-8.53-2.07,12.32,12.32,0,0,1-4.88-5.75,21.68,21.68,0,0,1-1.56-8.53,21,21,0,0,1,1-6.66,15.13,15.13,0,0,1,3-5.24,13.34,13.34,0,0,1,4.87-3.44,17.11,17.11,0,0,1,6.65-1.21,24.58,24.58,0,0,1,4.89.53,21.77,21.77,0,0,1,5,1.72l-2.65,6.81a27.11,27.11,0,0,0-3.54-1.4A12.55,12.55,0,0,0,66.08,138.36Z"/><path d="M110.87,147.68a24,24,0,0,1-.89,6.74,13.78,13.78,0,0,1-2.77,5.22,12.11,12.11,0,0,1-4.84,3.36,19.17,19.17,0,0,1-7.07,1.17,18.84,18.84,0,0,1-7-1.17,12.45,12.45,0,0,1-4.85-3.35,13.85,13.85,0,0,1-2.82-5.22,23.53,23.53,0,0,1-.92-6.79A21.1,21.1,0,0,1,81.39,139a12.28,12.28,0,0,1,5.11-5.71,17.35,17.35,0,0,1,8.85-2,17.24,17.24,0,0,1,8.9,2,12.14,12.14,0,0,1,5,5.73A21.91,21.91,0,0,1,110.87,147.68Zm-22,0a16.51,16.51,0,0,0,.65,5,6.38,6.38,0,0,0,2.08,3.2A5.89,5.89,0,0,0,95.3,157a6,6,0,0,0,3.8-1.12,6.27,6.27,0,0,0,2-3.2,17.6,17.6,0,0,0,.62-5,13.82,13.82,0,0,0-1.44-6.85c-1-1.68-2.62-2.51-5-2.51a6,6,0,0,0-3.78,1.13,6.38,6.38,0,0,0-2.08,3.24A17.14,17.14,0,0,0,88.85,147.68Z"/><path d="M147.12,163.73H135.78l-11.69-22.55h-.2c.07.69.14,1.51.2,2.48s.11,1.94.15,2.94.07,1.9.07,2.7v14.43h-7.66v-32h11.29L139.59,154h.13c0-.7-.09-1.52-.13-2.44s-.09-1.87-.12-2.82-.06-1.78-.06-2.51V131.73h7.71Z"/><path d="M181.2,147.05a18.71,18.71,0,0,1-2.08,9.28,13.24,13.24,0,0,1-5.85,5.55,20,20,0,0,1-8.88,1.85H154v-32h11.07a19.68,19.68,0,0,1,8.76,1.77,12.25,12.25,0,0,1,5.46,5.19A17.14,17.14,0,0,1,181.2,147.05Zm-9,.31a12.92,12.92,0,0,0-.78-4.83,5.84,5.84,0,0,0-2.33-2.87,7.44,7.44,0,0,0-3.92-.95h-2.52v17.93h1.93c2.63,0,4.55-.77,5.78-2.29S172.23,150.49,172.23,147.36Z"/><path class="cls-1" d="M198,131.73q6.09,0,9.12,2.65t3,7.53a14.28,14.28,0,0,1-.62,4.2,9.32,9.32,0,0,1-5.78,6.08,15.57,15.57,0,0,1-5.75.92h-2.43v10.62h-8.64v-32Zm-.19,7h-2.24v7.35h1.71a5.49,5.49,0,0,0,2.08-.38,3.2,3.2,0,0,0,1.54-1.25,4,4,0,0,0,.58-2.31,3.49,3.49,0,0,0-.89-2.46A3.68,3.68,0,0,0,197.82,138.71Z"/><path d="M234.9,163.73l-1.58-6H222.93l-1.62,6H211.8l10.45-32.13h11.53l10.58,32.13Zm-3.37-13.09-1.38-5.25c-.15-.57-.36-1.39-.64-2.44s-.55-2.16-.82-3.29-.48-2.06-.62-2.79c-.13.73-.32,1.63-.56,2.7s-.49,2.14-.74,3.19-.48,1.93-.67,2.63l-1.38,5.25Z"/><path d="M260.66,145h13.82v17.25a35.65,35.65,0,0,1-5.67,1.39,40.23,40.23,0,0,1-6.7.54,17.39,17.39,0,0,1-8.1-1.8,12.56,12.56,0,0,1-5.43-5.46,19.6,19.6,0,0,1-2-9.27,18.37,18.37,0,0,1,1.93-8.7,13.34,13.34,0,0,1,5.68-5.67,19.28,19.28,0,0,1,9.2-2,27.54,27.54,0,0,1,5.7.57,24.46,24.46,0,0,1,4.68,1.44l-2.74,6.79a16,16,0,0,0-3.59-1.28,17.52,17.52,0,0,0-4-.43,7.55,7.55,0,0,0-4.61,1.29,7.33,7.33,0,0,0-2.53,3.45,13.9,13.9,0,0,0-.79,4.76,13,13,0,0,0,.85,5,6.52,6.52,0,0,0,2.47,3.11,7.06,7.06,0,0,0,3.95,1.06,17.34,17.34,0,0,0,1.87-.11,11.12,11.12,0,0,0,1.68-.26v-5h-5.72Z"/><path d="M300,163.73H281v-32h19v6.94H289.65v5h9.58v6.94h-9.58v6H300Z"/><path class="cls-1" d="M37.38,149.49v-.63H27.49v-1.12h9.89v-.63H27.49V146h9.89v-.64H27.49V144.3h-.27v-.64H37.46c.19,0,.37.23.49.62a11.34,11.34,0,0,1,0,6.24c-.12.42-.31.66-.51.66H27.22v-.63h.27v-1.06Z"/><path class="cls-1" d="M44.48,137.55v-.63H27.67V135.8H44.48v-.63H27.67v-1.11H44.48v-.63H27.67v-1.07h-.45v-.63H44.63a1,1,0,0,1,.84.62,6.91,6.91,0,0,1,0,6.23,1,1,0,0,1-.87.67H27.22v-.64h.45v-1.06Z"/><path class="cls-1" d="M44.48,162v-.64H27.67v-1.11H44.48v-.64H27.67v-1.11H44.48v-.63H27.67v-1.07h-.45v-.63H44.63a1,1,0,0,1,.84.62,6.93,6.93,0,0,1,0,6.24,1,1,0,0,1-.87.66H27.22v-.63h.45V162Z"/></svg>