<svg id="Layer_1" data-name="Layer 1" xmlns="http://www.w3.org/2000/svg" viewBox="0 0 75 75"><defs><style>.cls-1{fill:#f15928;}</style></defs><path class="cls-1" d="M39,41.63V40.15H15.85V37.53H39V36.05H15.85V33.44H39V32H15.85v-2.5h-.61V28h24c.45,0,.88.53,1.16,1.45a26.45,26.45,0,0,1,0,14.61c-.27,1-.72,1.56-1.19,1.56h-24V44.12h.61V41.63Z"/><path class="cls-1" d="M55.68,13.65V12.17H16.28V9.55h39.4V8.07H16.28V5.46h39.4V4H16.28V1.48h-1V0H56a2.34,2.34,0,0,1,2,1.45,16.21,16.21,0,0,1,0,14.62,2.38,2.38,0,0,1-2,1.55H15.24V16.14h1V13.65Z"/><path class="cls-1" d="M55.68,71V69.55H16.28V66.93h39.4V65.45H16.28V62.84h39.4V61.36H16.28v-2.5h-1V57.38H56a2.34,2.34,0,0,1,2,1.45,16.21,16.21,0,0,1,0,14.62A2.38,2.38,0,0,1,56,75H15.24V73.52h1V71Z"/></svg>