<svg id="Layer_1" data-name="Layer 1" xmlns="http://www.w3.org/2000/svg" viewBox="0 0 300 32.51"><defs><style>.cls-1{fill:#f15928;}</style></defs><path d="M22.28,22.79A9.85,9.85,0,0,1,21,27.72a9.51,9.51,0,0,1-4.08,3.78A15.48,15.48,0,0,1,9.73,33a33,33,0,0,1-3.84-.2,16.48,16.48,0,0,1-3.07-.65,23.84,23.84,0,0,1-3-1.17v-7.7a27,27,0,0,0,5.25,2,19.26,19.26,0,0,0,4.8.69A6,6,0,0,0,12,25.61a2.56,2.56,0,0,0,1.22-.84,2.06,2.06,0,0,0,.39-1.24,1.92,1.92,0,0,0-.58-1.41,7.1,7.1,0,0,0-1.85-1.21c-.85-.43-2-.95-3.35-1.58a33.92,33.92,0,0,1-3.21-1.71,11.07,11.07,0,0,1-2.45-2A7.76,7.76,0,0,1,.63,13,10.38,10.38,0,0,1,.08,9.41,8.58,8.58,0,0,1,1.6,4.24,9.17,9.17,0,0,1,5.85,1.09a17.38,17.38,0,0,1,6.29-1,21.23,21.23,0,0,1,5.64.7,32.15,32.15,0,0,1,4.5,1.6L19.63,9a27.07,27.07,0,0,0-4-1.5A13.87,13.87,0,0,0,11.88,7a5.2,5.2,0,0,0-1.83.27A2.36,2.36,0,0,0,9,8a1.67,1.67,0,0,0-.34,1,1.84,1.84,0,0,0,.58,1.33,7.58,7.58,0,0,0,1.95,1.28c.91.46,2.16,1.06,3.73,1.79a21.73,21.73,0,0,1,4,2.26,8.19,8.19,0,0,1,2.5,2.92A9.09,9.09,0,0,1,22.28,22.79Z"/><path d="M66.08,7.14a5.74,5.74,0,0,0-2.74.64,5.88,5.88,0,0,0-2.05,1.87,9.21,9.21,0,0,0-1.31,3,16.25,16.25,0,0,0-.45,4,14.72,14.72,0,0,0,.77,5.08,6.21,6.21,0,0,0,2.33,3.1,6.93,6.93,0,0,0,3.93,1.05,14.17,14.17,0,0,0,4.13-.59,39,39,0,0,0,4-1.42v7.31a19.49,19.49,0,0,1-4.34,1.36,25.43,25.43,0,0,1-4.72.42,15.89,15.89,0,0,1-8.53-2.07,12.32,12.32,0,0,1-4.88-5.75,21.73,21.73,0,0,1-1.56-8.54,20.94,20.94,0,0,1,1-6.65,15,15,0,0,1,3-5.24,13.23,13.23,0,0,1,4.87-3.44A17.11,17.11,0,0,1,66.17,0a23.9,23.9,0,0,1,4.89.54,21.77,21.77,0,0,1,5,1.72L73.43,9.11A28.66,28.66,0,0,0,69.89,7.7,12.86,12.86,0,0,0,66.08,7.14Z"/><path d="M110.87,16.46a23.94,23.94,0,0,1-.89,6.73,13.78,13.78,0,0,1-2.77,5.22,12.11,12.11,0,0,1-4.84,3.36A19.16,19.16,0,0,1,95.3,33a18.83,18.83,0,0,1-7-1.18,12.34,12.34,0,0,1-4.85-3.35,13.85,13.85,0,0,1-2.82-5.22,23.46,23.46,0,0,1-.92-6.78,21.1,21.1,0,0,1,1.65-8.68A12.3,12.3,0,0,1,86.5,2a17.46,17.46,0,0,1,8.85-2,17.24,17.24,0,0,1,8.9,2,12,12,0,0,1,5,5.73A21.88,21.88,0,0,1,110.87,16.46Zm-22,0a16.55,16.55,0,0,0,.65,5,6.38,6.38,0,0,0,2.08,3.2,5.88,5.88,0,0,0,3.72,1.11,6,6,0,0,0,3.8-1.11,6.27,6.27,0,0,0,2-3.2,17.65,17.65,0,0,0,.62-5,13.82,13.82,0,0,0-1.44-6.85c-1-1.68-2.62-2.52-5-2.52a5.91,5.91,0,0,0-3.78,1.14,6.38,6.38,0,0,0-2.08,3.24A17.09,17.09,0,0,0,88.85,16.46Z"/><path d="M147.12,32.51H135.78L124.09,10h-.2c.07.69.14,1.51.2,2.47s.11,2,.15,3,.07,1.9.07,2.7V32.51h-7.66V.5h11.29l11.65,22.24h.13c0-.7-.09-1.51-.13-2.44s-.09-1.86-.12-2.81-.06-1.79-.06-2.52V.5h7.71Z"/><path d="M181.2,15.83a18.71,18.71,0,0,1-2.08,9.28,13.35,13.35,0,0,1-5.85,5.55,20,20,0,0,1-8.88,1.85H154V.5h11.07a19.54,19.54,0,0,1,8.76,1.78,12.28,12.28,0,0,1,5.46,5.18A17.2,17.2,0,0,1,181.2,15.83Zm-9,.3a12.83,12.83,0,0,0-.78-4.82,5.8,5.8,0,0,0-2.33-2.87,7.35,7.35,0,0,0-3.92-.95h-2.52V25.41h1.93c2.63,0,4.55-.76,5.78-2.28S172.23,19.27,172.23,16.13Z"/><path class="cls-1" d="M198,.5c4.06,0,7.1.89,9.12,2.65a9.48,9.48,0,0,1,3,7.53,14.39,14.39,0,0,1-.62,4.21A9.32,9.32,0,0,1,203.76,21a15.78,15.78,0,0,1-5.75.92h-2.43V32.51h-8.64V.5Zm-.19,7h-2.24v7.35h1.71a5.69,5.69,0,0,0,2.08-.38,3.26,3.26,0,0,0,1.54-1.25,4.08,4.08,0,0,0,.58-2.31,3.46,3.46,0,0,0-.89-2.46A3.64,3.64,0,0,0,197.82,7.49Z"/><path d="M234.9,32.51l-1.58-6H222.93l-1.62,6H211.8L222.25.37h11.53l10.58,32.14Zm-3.37-13.09-1.38-5.26-.64-2.44c-.27-1.06-.55-2.15-.82-3.28s-.48-2.06-.62-2.79c-.13.73-.32,1.63-.56,2.7s-.49,2.14-.74,3.19-.48,1.92-.67,2.62l-1.38,5.26Z"/><path d="M260.66,13.77h13.82V31a35.65,35.65,0,0,1-5.67,1.39,40.23,40.23,0,0,1-6.7.54,17.39,17.39,0,0,1-8.1-1.8,12.67,12.67,0,0,1-5.43-5.46,19.65,19.65,0,0,1-2-9.27,18.37,18.37,0,0,1,1.93-8.7,13.29,13.29,0,0,1,5.68-5.67,19.28,19.28,0,0,1,9.2-2,27.54,27.54,0,0,1,5.7.57,23.75,23.75,0,0,1,4.68,1.45l-2.74,6.78a16.53,16.53,0,0,0-3.59-1.28,18.12,18.12,0,0,0-4-.42,7.55,7.55,0,0,0-4.61,1.29,7.33,7.33,0,0,0-2.53,3.45,13.86,13.86,0,0,0-.79,4.76,13,13,0,0,0,.85,5,6.52,6.52,0,0,0,2.47,3.11,7.06,7.06,0,0,0,3.95,1.06c.51,0,1.14,0,1.87-.11a11.12,11.12,0,0,0,1.68-.26v-5h-5.72Z"/><path d="M300,32.51H281V.5h19V7.44H289.65v5h9.58v6.94h-9.58v6H300Z"/><path class="cls-1" d="M37.38,18.27v-.63H27.49V16.52h9.89v-.64H27.49V14.77h9.89v-.63H27.49V13.07h-.27v-.63H37.46c.19,0,.37.23.49.62a11.35,11.35,0,0,1,0,6.24c-.12.41-.31.66-.51.66H27.22v-.63h.27V18.27Z"/><path class="cls-1" d="M44.48,6.33V5.7H27.67V4.58H44.48V4H27.67V2.83H44.48V2.2H27.67V1.14h-.45V.5H44.63a1,1,0,0,1,.84.62,6.93,6.93,0,0,1,0,6.24,1,1,0,0,1-.87.66H27.22V7.39h.45V6.33Z"/><path class="cls-1" d="M44.48,30.81v-.63H27.67V29.06H44.48v-.63H27.67V27.32H44.48v-.63H27.67V25.62h-.45V25H44.63a1,1,0,0,1,.84.62,6.91,6.91,0,0,1,0,6.23,1,1,0,0,1-.87.67H27.22v-.63h.45V30.81Z"/></svg>